<?xml version="1.0" encoding="UTF-8" standalone="no"?><!DOCTYPE svg PUBLIC "-//W3C//DTD SVG 1.1//EN" "http://www.w3.org/Graphics/SVG/1.1/DTD/svg11.dtd"><svg width="100%" height="100%" viewBox="0 0 113 113" version="1.1" xmlns="http://www.w3.org/2000/svg" xmlns:xlink="http://www.w3.org/1999/xlink" xml:space="preserve" xmlns:serif="http://www.serif.com/" style="fill-rule:evenodd;clip-rule:evenodd;stroke-linejoin:round;stroke-miterlimit:2;"><path d="M29.062,17.906c-7.427,7.56 -13.557,20.972 -16.849,31.426c-1.036,3.292 -4.546,5.121 -7.838,4.084c-3.293,-1.036 -5.121,-4.546 -4.085,-7.838c3.491,-11.088 10.352,-26.759 19.855,-36.432c4.788,-4.874 10.96,-8.943 18.326,-9.139c7.569,-0.2 14.638,3.716 21.013,11.027c3.874,4.444 6.504,8.843 7.411,13.312c0.967,4.774 -0.155,9.018 -2.599,12.536c-2.275,3.277 -5.565,5.752 -8.783,7.717c-3.262,1.992 -6.988,3.773 -10.51,5.426c-0.271,0.127 -0.54,0.253 -0.808,0.378c-7.139,3.346 -13.249,6.209 -17.149,9.904c-1.873,1.776 -2.902,3.459 -3.327,5.157c-0.416,1.661 -0.413,3.964 0.879,7.287c2.589,6.658 9.07,13.026 18.138,18.048c8.959,4.962 19.695,8.177 29.574,8.995c10.09,0.836 18.147,-0.903 22.763,-4.466c2.179,-1.681 3.677,-3.817 4.411,-6.591c0.755,-2.854 0.8,-6.776 -0.652,-12.066c-2.716,-9.896 -8.719,-14.615 -15.635,-16.562c-7.315,-2.06 -16.021,-1.061 -23.195,1.632c-3.55,1.332 -6.446,2.979 -8.427,4.595c-0.984,0.804 -1.648,1.522 -2.057,2.096c-0.171,0.24 -0.281,0.431 -0.35,0.571c0.104,0.093 0.257,0.217 0.479,0.374c1.452,1.025 4.656,2.363 10.732,3.258c3.415,0.502 5.776,3.678 5.273,7.093c-0.503,3.415 -3.679,5.776 -7.094,5.273c-6.837,-1.006 -12.315,-2.727 -16.118,-5.411c-4.131,-2.915 -6.607,-7.319 -5.695,-12.477c0.778,-4.407 3.831,-7.935 6.928,-10.462c3.255,-2.657 7.415,-4.916 11.936,-6.613c8.967,-3.366 20.462,-4.921 30.975,-1.961c10.913,3.072 20.366,10.945 24.302,25.285c1.874,6.827 2.14,13.062 0.682,18.573c-1.48,5.59 -4.629,10.026 -8.857,13.289c-8.199,6.328 -20.001,7.974 -31.432,7.028c-11.642,-0.964 -24.091,-4.699 -34.599,-10.518c-10.4,-5.759 -19.669,-14.003 -23.732,-24.452c-2.034,-5.231 -2.519,-10.205 -1.355,-14.855c1.156,-4.613 3.777,-8.275 6.856,-11.193c5.435,-5.15 13.304,-8.821 19.763,-11.833c0.504,-0.235 0.999,-0.466 1.483,-0.694c3.57,-1.674 6.705,-3.19 9.303,-4.776c2.642,-1.614 4.213,-3 5.031,-4.178c0.65,-0.937 0.854,-1.741 0.615,-2.923c-0.301,-1.485 -1.413,-3.947 -4.582,-7.581c-4.895,-5.614 -8.677,-6.815 -11.259,-6.746c-2.786,0.074 -6.064,1.66 -9.741,5.403Zm19.911,50.881c0.004,0.001 0.02,0.02 0.039,0.059c-0.033,-0.04 -0.043,-0.059 -0.039,-0.059Z" style="fill:#111;"/></svg>